PathFileType	4	(X/Y/Z)	s11c0303.trc
DataRate	CameraRate	NumFrames	NumMarkers	Units	OrigDataRate	OrigDataStartFrame	OrigNumFrames
200	200	6	48	mm	200	0	2000
Frame#	Time	racr			lacr			c7			jug			rlel			rdr			llel			ldr			s2			lic			ric			lasi			rasi			rpsi			lpsi			rgt			lgt			rth1			rth2			rth3			rth4			rlfc			rmfc			rsh1			rsh2			rsh3			rsh4			rlmal			rcal			rtoe			rmt5			lth1			lth2			lth4			lth3			llfc			lmfc			llmal			lcal			lmt5			lsh1			lsh2			lsh3			lsh4			ltoe			SBIKE			LBIKE			RBIKE			
		X1	Y1	Z1	X2	Y2	Z2	X3	Y3	Z3	X4	Y4	Z4	X5	Y5	Z5	X6	Y6	Z6	X7	Y7	Z7	X8	Y8	Z8	X9	Y9	Z9	X10	Y10	Z10	X11	Y11	Z11	X12	Y12	Z12	X13	Y13	Z13	X14	Y14	Z14	X15	Y15	Z15	X16	Y16	Z16	X17	Y17	Z17	X18	Y18	Z18	X19	Y19	Z19	X20	Y20	Z20	X21	Y21	Z21	X22	Y22	Z22	X23	Y23	Z23	X24	Y24	Z24	X25	Y25	Z25	X26	Y26	Z26	X27	Y27	Z27	X28	Y28	Z28	X29	Y29	Z29	X30	Y30	Z30	X31	Y31	Z31	X32	Y32	Z32	X33	Y33	Z33	X34	Y34	Z34	X35	Y35	Z35	X36	Y36	Z36	X37	Y37	Z37	X38	Y38	Z38	X39	Y39	Z39	X40	Y40	Z40	X41	Y41	Z41	X42	Y42	Z42	X43	Y43	Z43	X44	Y44	Z44	X45	Y45	Z45	X46	Y46	Z46	X47	Y47	Z47	X48	Y48	Z48	
0	0.0000	480.774027	1400.239035	-125.659514	475.354902	1422.439775	-417.396518	394.032659	1486.868175	-270.857450	445.156264	1317.297094	-282.230366	607.974735	1158.631420	-72.784648	0.000000	0.000000	-0.000000	576.775406	1140.938269	-486.696843	795.342560	911.792919	-441.248729	-144.807193	1210.635675	-265.876458	73.978368	1215.995369	-471.953662	92.341550	1204.337222	-73.134931	88.029996	1148.528331	-431.467935	115.685252	1136.308628	-101.662582	-93.301015	1286.277424	-210.982425	-96.070891	1280.410830	-304.206687	9.578461	1065.303528	-43.539648	-23.435186	1101.186709	-484.315821	96.936834	950.303400	-40.692199	172.522501	897.115743	-53.568514	208.595920	818.446565	-70.120350	199.277203	920.824648	-63.749803	270.836556	731.818724	-86.842262	264.937075	713.390173	-213.130398	182.406016	596.980946	-72.932838	153.462508	515.274142	-91.027394	89.208553	456.414544	-91.544189	175.068910	505.542738	-123.635725	3.493413	353.361673	-104.027326	-64.503064	348.670655	-150.900689	203.804630	249.307462	-146.743090	130.498043	239.971256	-76.652251	112.404193	1035.866747	-492.233321	197.344142	1026.810164	-488.704869	211.891000	1060.126345	-479.108817	269.297614	972.718974	-485.192257	396.630183	909.554141	-457.600136	409.216503	909.575708	-331.470462	264.458850	504.615380	-420.385885	208.924746	462.875486	-380.627792	405.868199	407.221563	-457.923869	357.332376	789.438712	-472.401244	358.821320	705.808741	-455.394332	316.936240	627.536570	-446.361296	389.713403	701.009761	-432.532385	504.445870	428.807615	-393.732306	-216.679412	948.506953	-256.791534	-18.189149	80.817289	-460.582701	-18.037841	80.856736	-61.955955	
1	0.0050	480.530611	1400.015721	-125.608384	474.991010	1421.975734	-417.283189	393.615796	1486.968129	-270.736238	444.638011	1317.245217	-282.103059	607.876507	1158.568441	-72.908921	0.000000	0.000000	-0.000000	576.889336	1140.920723	-486.720188	795.397469	911.755481	-441.191648	-145.096478	1210.566732	-265.837832	73.509354	1216.011573	-471.867034	92.065924	1204.426430	-73.109954	87.584226	1148.311438	-431.112984	115.377078	1136.394816	-101.724319	-93.706934	1286.198915	-210.828787	-96.444482	1280.385229	-304.197824	9.404631	1065.436169	-43.520622	-23.759983	1100.993310	-484.199546	96.842783	950.507794	-40.553022	172.491661	897.360730	-53.523062	208.615411	818.655652	-70.046325	199.209637	921.039925	-63.700870	270.887609	732.050730	-86.728530	265.070596	713.676887	-213.106267	182.389382	597.265063	-72.854134	153.462846	515.520834	-90.998640	89.163364	456.752497	-91.504267	175.032040	505.814754	-123.569101	3.382176	353.733080	-104.033063	-64.595341	348.989325	-150.883349	203.617528	249.602617	-146.734106	130.329281	240.303190	-76.641982	112.138103	1035.676788	-492.174517	197.068119	1026.567211	-488.713408	211.647860	1059.876826	-479.174048	268.972809	972.435839	-485.190482	396.222804	909.167826	-457.685451	408.895919	909.237306	-331.492505	264.467407	504.169919	-420.392832	208.979491	462.323003	-380.586221	405.995880	406.918645	-457.932056	357.146201	789.011486	-472.348553	358.494013	704.566378	-455.392449	316.815465	627.026756	-446.357990	389.144222	700.920631	-434.657990	504.538978	428.640660	-393.762179	-216.679536	948.485091	-256.778677	-18.231022	80.850243	-460.572225	-18.031777	80.848123	-61.953747	
2	0.0100	480.235882	1399.843325	-125.616797	474.660866	1421.517402	-417.177276	393.257117	1487.045537	-270.542440	444.190903	1317.182936	-281.982831	607.788318	1158.522205	-73.091386	0.000000	0.000000	-0.000000	577.023924	1140.938538	-486.753663	795.460737	911.747181	-441.159830	-145.441020	1210.544210	-265.790301	73.120372	1216.083400	-471.948957	91.777137	1204.536265	-73.085524	87.376274	1148.330343	-431.243883	115.053718	1136.496524	-101.781474	-94.022463	1286.287931	-210.885067	-96.868647	1280.354395	-304.153447	9.246456	1065.537413	-43.539891	-24.005348	1100.904069	-484.138268	96.744146	950.676565	-40.424092	172.438977	897.572457	-53.460785	208.582680	818.895042	-69.980290	199.142473	921.251773	-63.670511	270.920847	732.283092	-86.633299	265.154389	713.918546	-213.005834	182.391083	597.510657	-72.793781	153.468468	515.830859	-90.928351	89.109556	457.025643	-91.461109	175.027538	506.086352	-123.500105	3.269872	354.095760	-104.007092	-64.718241	349.454222	-150.932813	203.487802	249.899350	-146.723305	130.233314	240.572452	-76.644449	111.863191	1035.518212	-492.113145	196.809564	1026.380800	-488.716021	211.440186	1059.619318	-479.190053	268.655246	972.128875	-485.195118	395.875590	908.803073	-457.702892	408.603890	908.889695	-331.512374	264.504427	503.640889	-420.379048	209.004474	461.832344	-380.648841	406.112134	406.636926	-457.958694	357.070262	788.321669	-471.762171	358.554467	705.029262	-455.314927	316.734800	626.649621	-446.341841	389.339487	700.254367	-432.506705	504.639646	428.462995	-393.760132	-216.689065	948.481949	-256.770204	-18.201265	80.843223	-460.580280	-18.022770	80.869197	-61.947507	
3	0.0150	479.933063	1399.612675	-125.600686	474.293215	1421.026671	-417.052906	392.912982	1487.130894	-270.503146	443.670253	1317.199844	-281.840020	607.715665	1158.471954	-73.270409	0.000000	0.000000	-0.000000	577.164287	1140.937830	-486.778970	794.783134	910.783570	-440.207074	-145.838132	1210.570276	-265.678577	72.763582	1216.119651	-471.981687	91.415743	1204.666979	-73.060003	87.167234	1148.390164	-431.368785	114.507307	1136.683383	-101.884508	-94.089904	1286.284889	-210.281192	-97.688755	1280.359930	-303.794253	9.093444	1065.665459	-43.541539	-24.237387	1100.824292	-484.060203	96.648544	950.865784	-40.279209	172.377252	897.811363	-53.425343	208.531267	819.102062	-69.872483	198.816706	921.398140	-63.796031	270.944988	732.534586	-86.530692	265.128260	714.305298	-213.076534	182.369505	597.798265	-72.743573	153.656621	516.102899	-90.784279	89.030600	457.336035	-91.406264	174.854578	506.467322	-123.510850	3.146265	354.458639	-103.976910	-64.816953	349.864060	-150.968062	203.367176	250.148878	-146.723010	130.088009	240.855883	-76.664423	111.545200	1035.256697	-492.060087	196.524671	1026.168253	-488.690189	211.382869	1059.562461	-479.341144	268.342565	971.847514	-485.208028	395.530386	908.475571	-457.763108	408.309041	908.555526	-331.544273	264.555918	503.175934	-420.392047	209.017292	461.323051	-380.692556	406.224662	406.335727	-457.972090	356.824730	787.923615	-471.773582	358.279679	703.869709	-455.411921	316.666728	626.238478	-446.344412	388.871806	700.307449	-434.885567	504.741885	428.255796	-393.787695	-216.690721	948.482485	-256.773680	-18.219101	80.883140	-460.522970	-18.024127	80.872354	-61.955579	
4	0.0200	479.563311	1399.164073	-125.535662	473.883892	1420.280443	-416.866252	392.498725	1487.200983	-270.592561	443.144878	1316.926889	-281.683401	607.576145	1158.293151	-73.357552	0.000000	0.000000	-0.000000	577.271444	1140.974820	-486.746652	795.905892	912.245407	-441.350566	-145.871359	1210.435804	-266.013852	72.301914	1216.204093	-471.989644	91.043150	1204.694614	-73.205971	86.915251	1148.362011	-431.451911	114.277856	1136.698710	-101.866753	-94.702975	1286.629840	-212.691787	-98.009934	1280.401984	-303.968109	9.034113	1065.680152	-43.624787	-24.503838	1100.329487	-483.789269	96.642736	950.939116	-40.240035	172.393278	897.920159	-53.369935	208.568284	819.198050	-69.877680	198.806608	921.607611	-63.859545	270.953266	732.640654	-86.470289	265.386667	714.417557	-212.470944	182.542549	597.932702	-72.639022	153.641655	516.284198	-90.936244	89.063575	457.505431	-91.384323	174.720714	506.627752	-123.408313	3.121591	354.730928	-103.894767	-64.869601	350.382757	-150.994379	203.312488	250.496256	-146.565729	130.027548	241.052972	-76.623398	111.282657	1034.960286	-492.098213	196.169613	1025.633784	-488.195459	211.065067	1059.369123	-479.303965	268.035519	971.308250	-484.722153	395.179089	907.856675	-457.351473	408.046978	908.085376	-331.559237	264.568607	502.658464	-420.356035	209.011994	460.707562	-380.719070	406.341304	406.000385	-457.959930	356.602391	787.486369	-471.786786	358.135278	703.450260	-455.526551	316.580196	625.645238	-446.354613	388.394515	699.881396	-435.747244	504.836758	428.068775	-393.845511	-216.844463	948.575533	-257.177320	-17.988715	81.132185	-460.129648	-17.961170	80.854964	-61.988093	
5	0.0250	479.199901	1398.866506	-125.620205	473.450124	1419.721110	-416.741365	392.114446	1487.237844	-270.562097	442.564256	1316.895220	-281.633811	607.448565	1158.228467	-73.544072	0.000000	0.000000	-0.000000	577.396800	1140.946064	-486.796270	795.002453	910.745541	-440.287179	-146.109681	1210.326438	-266.106550	71.810866	1216.294301	-471.895174	90.705539	1204.804552	-73.186668	86.634588	1148.432370	-431.503188	113.998578	1136.807446	-101.874130	-95.098554	1286.649219	-212.794736	-98.410229	1280.390714	-304.010235	8.869771	1065.805712	-43.638006	-24.661674	1100.681039	-483.760250	96.506889	951.121124	-40.097207	172.314244	898.123923	-53.330834	208.546501	819.387976	-69.834204	198.765597	921.853922	-63.819238	270.975204	732.869385	-86.366960	265.348482	714.691786	-212.883109	182.540410	598.181466	-72.563810	153.615273	516.453944	-90.934157	89.040793	457.749402	-91.388651	174.689384	506.903037	-123.301133	3.067491	355.037988	-103.944239	-64.996013	350.609321	-150.993831	203.190787	250.743542	-146.589007	129.904524	241.307228	-76.615790	111.030774	1035.036430	-491.978809	195.996274	1025.629409	-488.285254	210.886322	1059.149397	-479.398783	267.762014	971.243713	-485.044625	394.818289	907.619239	-457.701863	407.726426	907.733823	-331.667641	264.589609	502.243697	-420.380388	209.112748	460.240818	-380.657817	406.455178	405.731389	-457.995376	356.354501	787.161256	-471.876268	357.940966	703.099031	-455.598252	316.482096	625.313886	-446.368549	388.282443	699.530441	-435.890366	504.880804	427.804252	-393.741866	-216.830981	948.584290	-256.885118	-18.015899	80.851998	-460.633401	-17.965841	80.844190	-61.988250	
